<?xml version="1.0" encoding="UTF-8"?>
<svg width="314px" height="144px" viewBox="0 0 314 144" version="1.1" xmlns="http://www.w3.org/2000/svg" xmlns:xlink="http://www.w3.org/1999/xlink" style="background: #FFFFFF;">
    <!-- Generator: Sketch 49.1 (51147) - http://www.bohemiancoding.com/sketch -->
    <title>Collar-hidden-button-down</title>
    <desc>Created with Sketch.</desc>
    <defs>
        <polygon id="path-1" points="0 0.580303339 68.3650814 0.580303339 68.3650814 93 0 93"></polygon>
        <polygon id="path-3" points="0.467218582 0.580303339 68.832 0.580303339 68.832 93 0.467218582 93"></polygon>
        <polygon id="path-5" points="0 104.148 134.832 104.148 134.832 0 0 0"></polygon>
    </defs>
    <g id="Collar-hidden-button-down" stroke="none" stroke-width="1" fill="none" fill-rule="evenodd">
        <g id="thumbnail-misc/collar-background" opacity="0.400000006" transform="translate(8.000000, 3.000000)" stroke="#A9B4C0" stroke-linecap="round" stroke-linejoin="round">
            <g id="Group" transform="translate(31.606061, 56.700000)">
                <path d="M51.681933,0.9 C39.2562011,4.31793663 14.0824584,11.2906596 0,15.1427403" id="Stroke-15" stroke-width="4"></path>
                <path d="M235.352454,0 C225.330379,2.74141342 195.520445,11.0050031 179.70303,15.3316595" id="Stroke-15-Copy" stroke-width="4" transform="translate(207.527742, 7.665830) scale(-1, 1) translate(-207.527742, -7.665830) "></path>
            </g>
            <g id="Group-2" transform="translate(141.775758, 107.100000)">
                <path d="M15.3515152,0 L15.3515152,22.5" id="Stroke-19" stroke-width="2"></path>
                <path d="M0.903030303,0 L0.903030303,22.5" id="Stroke-19" stroke-width="2"></path>
            </g>
        </g>
        <g id="thumbnail/collar/Hidden-button-down-collar" transform="translate(90.000000, 18.000000)">
            <polygon id="Path-11" fill="#FFFFFF" points="131 31.5 134 42 127.5 56 121 66.5 116 48"></polygon>
            <path d="M12.5,64.5 L4.5,51.5 C2.16666667,45.5 1,42.5 1,42.5 C1,42.5 2,38.6666667 4,31 L16.5,53.5 L12.5,64.5 Z" id="Path-12" fill="#FFFFFF"></path>
            <g id="Page-1" stroke-width="1">
                <g id="Group-3" transform="translate(0.000000, 11.148000)">
                    <mask id="mask-2" fill="white">
                        <use xlink:href="#path-1"></use>
                    </mask>
                    <g id="Clip-2"></g>
                    <path d="M28.0011,93 C27.7961,93 27.5941,92.934 27.4281,92.808 C27.2131,92.646 27.0781,92.399 27.0551,92.132 C25.5381,74.438 18.5561,64 11.8041,53.906 C7.0691,46.828 2.5981,40.142 0.0371,31.285 C-0.0119,31.115 -0.0129,30.935 0.0351,30.765 C2.5371,21.846 7.7971,1.497 7.8501,1.293 C7.9801,0.785 8.5051,0.479 9.0061,0.611 C9.5141,0.742 9.8191,1.26 9.6881,1.768 C9.6361,1.971 4.4731,21.949 1.9371,31.016 C4.4281,39.464 8.7791,45.968 13.3831,52.85 C20.1261,62.931 27.0941,73.347 28.8431,90.85 C35.0321,88.77 40.2671,78.813 45.7921,68.305 C51.9781,56.54 58.3741,44.374 67.1381,41.693 C67.6381,41.539 68.1701,41.822 68.3231,42.323 C68.4771,42.824 68.1941,43.355 67.6921,43.508 C59.6871,45.958 53.4781,57.768 47.4731,69.188 C41.4281,80.686 35.7181,91.546 28.1791,92.983 C28.1201,92.995 28.0611,93 28.0011,93" id="Fill-1" fill="#1B304E" mask="url(#mask-2)"></path>
                </g>
                <g id="Group-6" transform="translate(66.000000, 11.148000)">
                    <mask id="mask-4" fill="white">
                        <use xlink:href="#path-3"></use>
                    </mask>
                    <g id="Clip-5"></g>
                    <path d="M40.8312,93 C40.7712,93 40.7122,92.995 40.6532,92.983 C33.1142,91.546 27.4042,80.686 21.3592,69.188 C15.3542,57.768 9.1452,45.958 1.1402,43.508 C0.6382,43.355 0.3552,42.824 0.5092,42.323 C0.6622,41.822 1.1972,41.537 1.6942,41.693 C10.4582,44.374 16.8542,56.54 23.0402,68.305 C28.5652,78.813 33.8002,88.77 39.9892,90.85 C41.7382,73.347 48.7062,62.931 55.4492,52.85 C60.0532,45.968 64.4042,39.464 66.8952,31.016 C64.3582,21.95 59.1952,1.971 59.1432,1.768 C59.0122,1.26 59.3172,0.742 59.8252,0.611 C60.3282,0.479 60.8512,0.785 60.9812,1.293 C61.0342,1.497 66.2942,21.847 68.7972,30.764 C68.8452,30.935 68.8442,31.115 68.7952,31.285 C66.2342,40.142 61.7632,46.828 57.0282,53.906 C50.2762,64 43.2942,74.438 41.7772,92.132 C41.7542,92.399 41.6192,92.646 41.4042,92.808 C41.2382,92.934 41.0362,93 40.8312,93" id="Fill-4" fill="#1B304E" mask="url(#mask-4)"></path>
                </g>
                <path d="M126.4523,14.4986 C126.4523,21.9816 100.0203,53.7486 67.4153,53.7486 C34.8093,53.7486 8.3783,21.9816 8.3783,14.4986 C8.3783,7.0156 34.8093,0.9496 67.4153,0.9496 C100.0203,0.9496 126.4523,7.0156 126.4523,14.4986" id="Fill-7" fill="#CED6DA"></path>
                <path d="M67.4152,1.899 C51.7152,1.899 36.9652,3.3 25.8822,5.843 C15.5162,8.222 9.3272,11.458 9.3272,14.499 C9.3272,17.612 15.3632,27.132 26.2762,36.2 C33.7372,42.399 49.0032,52.799 67.4152,52.799 C85.8272,52.799 101.0932,42.399 108.5542,36.2 C119.4672,27.132 125.5032,17.612 125.5032,14.499 C125.5032,11.458 119.3142,8.222 108.9482,5.843 C97.8652,3.3 83.1152,1.899 67.4152,1.899 M67.4152,54.698 C34.3762,54.698 7.4292,22.378 7.4292,14.499 C7.4292,9.235 17.2322,5.88 25.4572,3.992 C36.6762,1.418 51.5762,0 67.4152,0 C83.2542,0 98.1542,1.418 109.3732,3.992 C117.5982,5.88 127.4012,9.235 127.4012,14.499 C127.4012,22.378 100.4542,54.698 67.4152,54.698" id="Fill-9" fill="#1B304E"></path>
                <path d="M113.3996,31.1817 C102.1606,27.9587 85.3996,26.1107 67.4156,26.1107 C49.4316,26.1107 32.6716,27.9587 21.4346,31.1807 L21.1726,30.2677 C32.4926,27.0227 49.3466,25.1617 67.4156,25.1617 C85.4846,25.1617 102.3406,27.0227 113.6616,30.2687 L113.3996,31.1817 Z" id="Fill-11" fill="#1B304E"></path>
                <path d="M71.1886,67.4581 C71.1886,69.5481 69.4946,71.2421 67.4046,71.2421 C65.3146,71.2421 63.6206,69.5481 63.6206,67.4581 C63.6206,65.3691 65.3146,63.6741 67.4046,63.6741 C69.4946,63.6741 71.1886,65.3691 71.1886,67.4581" id="Fill-13" fill="#1B304E"></path>
                <mask id="mask-6" fill="white">
                    <use xlink:href="#path-5"></use>
                </mask>
                <g id="Clip-16"></g>
                <polygon id="Fill-15" fill="#1B304E" mask="url(#mask-6)" points="56.998 80.83 58.891 80.83 58.891 61.08 56.998 61.08"></polygon>
                <path d="M85.7804,77.3985 C83.1024,79.1685 80.1234,80.4425 77.0174,81.3125 C75.4694,81.7785 73.8734,82.0545 72.2724,82.3105 C70.6644,82.5225 69.0404,82.6205 67.4154,82.6475 C65.7894,82.6155 64.1654,82.5245 62.5584,82.3055 C60.9574,82.0525 59.3614,81.7725 57.8134,81.3075 C54.7094,80.4365 51.7294,79.1655 49.0504,77.3985 L49.1194,77.2215 C54.9484,79.4755 61.1694,80.7855 67.4154,80.7495 C73.6614,80.7845 79.8824,79.4755 85.7114,77.2215 L85.7804,77.3985 Z" id="Fill-17" fill="#1B304E" mask="url(#mask-6)"></path>
            </g>
        </g>
    </g>
</svg>