<?xml version="1.0" encoding="UTF-8"?>
<svg width="314px" height="144px" viewBox="0 0 314 144" version="1.1" xmlns="http://www.w3.org/2000/svg" xmlns:xlink="http://www.w3.org/1999/xlink" style="background: #FFFFFF;">
    <!-- Generator: Sketch 49.1 (51147) - http://www.bohemiancoding.com/sketch -->
    <title>Collar-semi-spread</title>
    <desc>Created with Sketch.</desc>
    <defs>
        <polygon id="path-1" points="0 0.782868211 68.3646047 0.782868211 68.3646047 93 0 93"></polygon>
    </defs>
    <g id="Collar-semi-spread" stroke="none" stroke-width="1" fill="none" fill-rule="evenodd">
        <g id="thumbnail-misc/collar-background" opacity="0.400000006" transform="translate(8.000000, 3.000000)" stroke="#A9B4C0" stroke-linecap="round" stroke-linejoin="round">
            <g id="Group" transform="translate(31.606061, 56.700000)">
                <path d="M51.681933,0.9 C39.2562011,4.31793663 14.0824584,11.2906596 0,15.1427403" id="Stroke-15" stroke-width="4"></path>
                <path d="M235.352454,0 C225.330379,2.74141342 195.520445,11.0050031 179.70303,15.3316595" id="Stroke-15-Copy" stroke-width="4" transform="translate(207.527742, 7.665830) scale(-1, 1) translate(-207.527742, -7.665830) "></path>
            </g>
            <g id="Group-2" transform="translate(141.775758, 107.100000)">
                <path d="M15.3515152,0 L15.3515152,22.5" id="Stroke-19" stroke-width="2"></path>
                <path d="M0.903030303,0 L0.903030303,22.5" id="Stroke-19" stroke-width="2"></path>
            </g>
        </g>
        <g id="thumbnail/collar/Semi-spread" transform="translate(90.000000, 17.000000)">
            <g id="Page-1">
                <g id="Group-3" transform="translate(0.000000, 10.946000)">
                    <mask id="mask-2" fill="white">
                        <use xlink:href="#path-1"></use>
                    </mask>
                    <g id="Clip-2"></g>
                    <path d="M15.0354,93 C14.9444,93 14.8524,92.987 14.7634,92.96 C14.4384,92.863 14.1904,92.601 14.1114,92.271 L0.0254,33.343 C-0.0096,33.195 -0.0086,33.041 0.0284,32.893 L7.8484,1.503 C7.9744,0.994 8.4904,0.685 8.9984,0.811 C9.5074,0.938 9.8164,1.453 9.6894,1.962 L1.9274,33.126 L15.5784,90.237 L66.7654,42.111 C67.1474,41.752 67.7484,41.77 68.1064,42.152 C68.4664,42.534 68.4474,43.135 68.0654,43.495 L15.6854,92.742 C15.5074,92.91 15.2734,93 15.0354,93" id="Fill-1" fill="#1B304E" mask="url(#mask-2)"></path>
                </g>
                <path d="M126.4524,14.4987 C126.4524,21.9817 100.0204,53.7487 67.4154,53.7487 C34.8094,53.7487 8.3784,21.9817 8.3784,14.4987 C8.3784,7.0157 34.8094,0.9497 67.4154,0.9497 C100.0204,0.9497 126.4524,7.0157 126.4524,14.4987" id="Fill-4" fill="#CED6DA"></path>
                <path d="M67.4153,1.8991 C51.7153,1.8991 36.9653,3.3001 25.8823,5.8431 C15.5163,8.2221 9.3273,11.4581 9.3273,14.4991 C9.3273,17.6121 15.3633,27.1321 26.2763,36.2001 C33.7373,42.3991 49.0033,52.7991 67.4153,52.7991 C85.8273,52.7991 101.0933,42.3991 108.5543,36.2001 C119.4673,27.1321 125.5033,17.6121 125.5033,14.4991 C125.5033,11.4581 119.3143,8.2221 108.9483,5.8431 C97.8653,3.3001 83.1153,1.8991 67.4153,1.8991 M67.4153,54.6981 C34.3763,54.6981 7.4293,22.3781 7.4293,14.4991 C7.4293,9.2351 17.2323,5.8801 25.4573,3.9921 C36.6763,1.4181 51.5763,0.0001 67.4153,0.0001 C83.2543,0.0001 98.1543,1.4181 109.3733,3.9921 C117.5983,5.8801 127.4013,9.2351 127.4013,14.4991 C127.4013,22.3781 100.4543,54.6981 67.4153,54.6981" id="Fill-6" fill="#1B304E"></path>
                <path d="M113.3987,31.1818 C102.1607,27.9588 85.4007,26.1108 67.4157,26.1108 C49.4317,26.1108 32.6717,27.9588 21.4347,31.1808 L21.1727,30.2678 C32.4927,27.0228 49.3467,25.1618 67.4157,25.1618 C85.4857,25.1618 102.3407,27.0228 113.6607,30.2688 L113.3987,31.1818 Z" id="Fill-8" fill="#1B304E"></path>
                <path d="M119.7893,103.946 C119.5553,103.946 119.3243,103.859 119.1463,103.696 L65.7093,54.541 C65.3233,54.186 65.2983,53.586 65.6523,53.2 C66.0093,52.814 66.6093,52.789 66.9943,53.144 L119.2413,101.203 L132.8973,44.072 L125.1353,12.908 C125.0083,12.399 125.3173,11.884 125.8263,11.757 C126.3363,11.631 126.8503,11.94 126.9763,12.449 L134.7963,43.839 C134.8333,43.987 134.8343,44.141 134.7993,44.289 L120.7133,103.217 C120.6343,103.545 120.3893,103.806 120.0663,103.905 C119.9763,103.932 119.8823,103.946 119.7893,103.946" id="Fill-10" fill="#1B304E"></path>
                <path d="M71.1888,69.3576 C71.1888,71.4476 69.4948,73.1416 67.4048,73.1416 C65.3148,73.1416 63.6208,71.4476 63.6208,69.3576 C63.6208,67.2676 65.3148,65.5736 67.4048,65.5736 C69.4948,65.5736 71.1888,67.2676 71.1888,69.3576" id="Fill-12" fill="#1B304E"></path>
                <path d="M58.8909,82.7292 L56.9979,82.7292 L56.9979,67.1432 C56.9979,65.1702 57.4809,63.2032 58.3939,61.4532 C58.6489,60.9662 58.9379,60.4932 59.2529,60.0462 L60.7979,61.1382 C60.5319,61.5162 60.2869,61.9172 60.0709,62.3292 C59.2989,63.8092 58.8909,65.4742 58.8909,67.1432 L58.8909,82.7292 Z" id="Fill-14" fill="#1B304E"></path>
                <path d="M87.8889,78.426 C84.9309,80.447 81.6249,81.941 78.1609,82.966 C76.4349,83.51 74.6509,83.847 72.8579,84.145 C71.0589,84.399 69.2379,84.519 67.4149,84.546 C65.5929,84.514 63.7719,84.402 61.9729,84.14 C60.1799,83.845 58.3969,83.504 56.6699,82.961 C53.2069,81.935 49.9009,80.443 46.9409,78.426 L47.0169,78.252 C53.4489,81.027 60.4089,82.687 67.4149,82.648 C74.4219,82.686 81.3809,81.027 87.8139,78.252 L87.8889,78.426 Z" id="Fill-16" fill="#1B304E"></path>
            </g>
        </g>
    </g>
</svg>