<?xml version="1.0" encoding="UTF-8"?>
<svg width="314px" height="144px" viewBox="0 0 314 144" version="1.1" xmlns="http://www.w3.org/2000/svg" xmlns:xlink="http://www.w3.org/1999/xlink" style="background: #FFFFFF;">
    <!-- Generator: Sketch 49.1 (51147) - http://www.bohemiancoding.com/sketch -->
    <title>Collar-wing</title>
    <desc>Created with Sketch.</desc>
    <defs>
        <polygon id="path-1" points="0 0.00318069232 17.6371 0.00318069232 17.6371 57.7394 0 57.7394"></polygon>
        <polygon id="path-3" points="0.608 0.7061 41.557 0.7061 41.557 7 0.608 7"></polygon>
    </defs>
    <g id="Collar-wing" stroke="none" stroke-width="1" fill="none" fill-rule="evenodd">
        <g id="thumbnail-misc/collar-background" opacity="0.400000006" transform="translate(8.000000, 3.000000)" stroke="#A9B4C0" stroke-linecap="round" stroke-linejoin="round">
            <g id="Group" transform="translate(31.606061, 56.700000)">
                <path d="M51.681933,0.9 C39.2562011,4.31793663 14.0824584,11.2906596 0,15.1427403" id="Stroke-15" stroke-width="4"></path>
                <path d="M235.352454,0 C225.330379,2.74141342 195.520445,11.0050031 179.70303,15.3316595" id="Stroke-15-Copy" stroke-width="4" transform="translate(207.527742, 7.665830) scale(-1, 1) translate(-207.527742, -7.665830) "></path>
            </g>
            <g id="Group-2" transform="translate(141.775758, 107.100000)">
                <path d="M15.3515152,0 L15.3515152,22.5" id="Stroke-19" stroke-width="2"></path>
                <path d="M0.903030303,0 L0.903030303,22.5" id="Stroke-19" stroke-width="2"></path>
            </g>
        </g>
        <g id="thumbnail/collar/Wing-collar" transform="translate(90.000000, 9.000000)">
            <g id="Page-1">
                <path d="M17.6371,69.4575 C17.6371,69.4575 0.6161,57.7095 0.6161,51.6645 L8.4361,12.6785" id="Fill-1" fill="#F2F2F2"></path>
                <g id="Group-5" transform="translate(0.000000, 11.718100)">
                    <mask id="mask-2" fill="white">
                        <use xlink:href="#path-1"></use>
                    </mask>
                    <g id="Clip-4"></g>
                    <path d="M17.6371,57.7394 C14.1581,55.4074 10.7851,52.9064 7.5971,50.1634 C6.0091,48.7844 4.4661,47.3434 3.0621,45.7424 C2.3631,44.9404 1.6981,44.0974 1.1271,43.1644 C0.5731,42.2314 0.0531,41.1994 0.0001,39.9464 C-0.0009,39.9144 0.0011,39.8834 0.0071,39.8534 L0.0121,39.8244 L7.5051,0.7744 C7.6041,0.2594 8.1021,-0.0786 8.6161,0.0204 C9.1321,0.1194 9.4691,0.6164 9.3701,1.1324 C9.3691,1.1354 9.3671,1.1434 9.3671,1.1474 L1.2211,40.0674 L1.2331,39.9464 C1.2161,40.8054 1.5881,41.7544 2.0621,42.6254 C2.5411,43.5054 3.1361,44.3444 3.7741,45.1514 C5.0541,46.7664 6.5071,48.2664 8.0111,49.7074 C11.0361,52.5794 14.2781,55.2404 17.6371,57.7394" id="Fill-3" fill="#1B304E" mask="url(#mask-2)"></path>
                </g>
                <path d="M25.0941,87.4502 L25.1051,87.4502 L25.0941,87.4502 Z M24.1451,88.4002 C23.9771,88.4002 23.8091,88.3552 23.6591,88.2662 C23.3711,88.0952 23.1961,87.7842 23.1961,87.4502 C23.1961,70.9952 18.2611,57.3862 13.9081,45.3782 C10.0131,34.6332 6.3331,24.4832 7.0991,14.4272 C7.1381,13.9042 7.6041,13.5172 8.1171,13.5522 C8.6401,13.5922 9.0321,14.0482 8.9911,14.5712 C8.2571,24.2202 11.7031,33.7252 15.6941,44.7312 C19.9601,56.4992 24.7781,69.7872 25.0791,85.8582 C31.5401,82.3172 58.6671,67.3052 66.4641,60.6242 C66.8631,60.2832 67.4611,60.3292 67.8031,60.7272 C68.1451,61.1252 68.0981,61.7252 67.7001,62.0662 C58.7191,69.7622 25.9871,87.5322 24.5971,88.2852 C24.4561,88.3612 24.3001,88.4002 24.1451,88.4002 Z" id="Fill-6" fill="#1B304E"></path>
                <path d="M116.5277,69.4575 C116.5277,69.4575 133.5477,57.7095 133.5477,51.6645 L125.7287,12.6785" id="Fill-8" fill="#F2F2F2"></path>
                <path d="M116.5277,69.4575 C119.8867,66.9585 123.1287,64.2975 126.1527,61.4255 C127.6577,59.9845 129.1107,58.4845 130.3907,56.8695 C131.0287,56.0625 131.6237,55.2235 132.1017,54.3435 C132.5767,53.4725 132.9487,52.5235 132.9317,51.6645 L132.9437,51.7855 L124.7977,12.8655 C124.6897,12.3525 125.0187,11.8495 125.5327,11.7415 C126.0457,11.6345 126.5487,11.9635 126.6567,12.4765 C126.6567,12.4795 126.6587,12.4885 126.6597,12.4925 L134.1527,51.5425 L134.1577,51.5695 C134.1637,51.6005 134.1657,51.6335 134.1647,51.6645 C134.1117,52.9175 133.5917,53.9495 133.0377,54.8825 C132.4667,55.8155 131.8017,56.6585 131.1027,57.4605 C129.6997,59.0615 128.1557,60.5025 126.5677,61.8815 C123.3797,64.6245 120.0067,67.1255 116.5277,69.4575" id="Fill-10" fill="#1B304E"></path>
                <path d="M126.1195,14.499 C126.1195,21.982 99.6875,61.345 67.0825,61.345 C34.4765,61.345 8.0455,21.982 8.0455,14.499 C8.0455,7.016 34.4765,0.95 67.0825,0.95 C99.6875,0.95 126.1195,7.016 126.1195,14.499" id="Fill-12" fill="#CED6DA"></path>
                <path d="M67.0824,1.8994 C51.3824,1.8994 36.6324,3.3004 25.5494,5.8434 C15.1834,8.2224 8.9944,11.4584 8.9944,14.4994 C8.9944,21.3974 35.2664,60.3954 67.0824,60.3954 C98.8984,60.3954 125.1704,21.3974 125.1704,14.4994 C125.1704,11.4584 118.9814,8.2224 108.6154,5.8434 C97.5324,3.3004 82.7824,1.8994 67.0824,1.8994 M67.0824,62.2954 C33.4504,62.2954 7.0964,21.9214 7.0964,14.4994 C7.0964,9.2354 16.8994,5.8804 25.1244,3.9924 C36.3434,1.4184 51.2434,0.0004 67.0824,0.0004 C82.9214,0.0004 97.8214,1.4184 109.0404,3.9924 C117.2654,5.8804 127.0684,9.2354 127.0684,14.4994 C127.0684,21.9214 100.7144,62.2954 67.0824,62.2954" id="Fill-14" fill="#1B304E"></path>
                <path d="M109.9096,37.9448 C98.6716,35.2128 83.4626,33.7078 67.0826,33.7078 C50.7036,33.7078 35.4946,35.2128 24.2576,37.9448 L24.0326,37.0218 C35.3426,34.2728 50.6306,32.7578 67.0826,32.7578 C83.5356,32.7578 98.8246,34.2728 110.1346,37.0218 L109.9096,37.9448 Z" id="Fill-16" fill="#1B304E"></path>
                <path d="M70.8559,76.9536 C70.8559,79.0436 69.1619,80.7376 67.0719,80.7376 C64.9819,80.7376 63.2879,79.0436 63.2879,76.9536 C63.2879,74.8646 64.9819,73.1696 67.0719,73.1696 C69.1619,73.1696 70.8559,74.8646 70.8559,76.9536" id="Fill-18" fill="#1B304E"></path>
                <path d="M58.558,89.0098 L56.665,89.0098 L56.665,74.7388 C56.665,69.7188 59.614,64.6968 63.69,62.7468 L66.508,60.5938 L67.657,62.0968 L64.582,64.4178 C61.148,66.0128 58.558,70.4498 58.558,74.7388 L58.558,89.0098 Z" id="Fill-20" fill="#1B304E"></path>
                <g id="Group-24" transform="translate(46.000000, 83.718100)">
                    <mask id="mask-4" fill="white">
                        <use xlink:href="#path-3"></use>
                    </mask>
                    <g id="Clip-23"></g>
                    <path d="M41.557,0.8801 C38.598,2.9011 35.292,4.3951 31.828,5.4201 C30.102,5.9641 28.318,6.3011 26.526,6.5991 C24.726,6.8531 22.905,6.9731 21.082,7.0001 C19.26,6.9681 17.439,6.8551 15.64,6.5941 C13.847,6.2991 12.064,5.9581 10.337,5.4151 C6.874,4.3891 3.568,2.8971 0.608,0.8801 L0.684,0.7061 C7.116,3.4801 14.076,5.1411 21.082,5.1021 C28.089,5.1401 35.048,3.4801 41.481,0.7061 L41.557,0.8801 Z" id="Fill-22" fill="#1B304E" mask="url(#mask-4)"></path>
                </g>
                <path d="M110.0209,88.3999 C109.8659,88.3999 109.7089,88.3619 109.5689,88.2849 C108.1789,87.5319 75.4459,69.7619 66.4649,62.0669 C66.0679,61.7249 66.0209,61.1259 66.3629,60.7279 C66.7039,60.3289 67.3019,60.2839 67.7019,60.6239 C75.4989,67.3059 102.6249,82.3169 109.0859,85.8579 C109.3879,69.7879 114.2059,56.4989 118.4719,44.7309 C122.4619,33.7249 125.9089,24.2199 125.1739,14.5709 C125.1339,14.0479 125.5259,13.5919 126.0479,13.5519 C126.5549,13.5119 127.0279,13.9039 127.0669,14.4269 C127.8329,24.4829 124.1529,34.6329 120.2569,45.3789 C115.9049,57.3859 110.9699,70.9949 110.9699,87.4499 C110.9699,87.7849 110.7939,88.0949 110.5059,88.2659 C110.3569,88.3549 110.1889,88.3999 110.0209,88.3999" id="Fill-25" fill="#1B304E"></path>
            </g>
        </g>
    </g>
</svg>