<?xml version="1.0" encoding="UTF-8"?>
<svg width="314px" height="144px" viewBox="0 0 314 144" version="1.1" xmlns="http://www.w3.org/2000/svg" xmlns:xlink="http://www.w3.org/1999/xlink" style="background: #FFFFFF;">
    <!-- Generator: Sketch 49.1 (51147) - http://www.bohemiancoding.com/sketch -->
    <title>Placket-with</title>
    <desc>Created with Sketch.</desc>
    <defs></defs>
    <g id="Placket-with" stroke="none" stroke-width="1" fill="none" fill-rule="evenodd">
        <g id="placket/With" transform="translate(136.000000, 2.000000)">
            <g id="Page-1" stroke-width="1" fill-rule="evenodd" transform="translate(0.000000, 25.740000)">
                <path d="M25.155,31.68 C25.155,33.86592 23.42124,35.64 21.285,35.64 C19.14876,35.64 17.415,33.86592 17.415,31.68 C17.415,29.49408 19.14876,27.72 21.285,27.72 C23.42124,27.72 25.155,29.49408 25.155,31.68" id="Fill-5" fill="#1B304E"></path>
                <path d="M24.732396,103.36194 C24.732396,105.54786 22.998636,107.32194 20.862396,107.32194 C18.726156,107.32194 16.992396,105.54786 16.992396,103.36194 C16.992396,101.17602 18.726156,99.40194 20.862396,99.40194 C22.998636,99.40194 24.732396,101.17602 24.732396,103.36194" id="Fill-7" fill="#1B304E"></path>
                <path d="M24.732396,175.63194 C24.732396,177.81786 22.998636,179.59194 20.862396,179.59194 C18.726156,179.59194 16.992396,177.81786 16.992396,175.63194 C16.992396,173.44602 18.726156,171.67194 20.862396,171.67194 C22.998636,171.67194 24.732396,173.44602 24.732396,175.63194" id="Fill-9" fill="#1B304E"></path>
                <path d="M24.732396,247.90194 C24.732396,250.08786 22.998636,251.86194 20.862396,251.86194 C18.726156,251.86194 16.992396,250.08786 16.992396,247.90194 C16.992396,245.71602 18.726156,243.94194 20.862396,243.94194 C22.998636,243.94194 24.732396,245.71602 24.732396,247.90194" id="Fill-11" fill="#1B304E"></path>
                <path d="M24.732396,320.17194 C24.732396,322.35786 22.998636,324.13194 20.862396,324.13194 C18.726156,324.13194 16.992396,322.35786 16.992396,320.17194 C16.992396,317.98602 18.726156,316.21194 20.862396,316.21194 C22.998636,316.21194 24.732396,317.98602 24.732396,320.17194" id="Fill-13" fill="#1B304E"></path>
                <path d="M24.732396,392.44194 C24.732396,394.62786 22.998636,396.40194 20.862396,396.40194 C18.726156,396.40194 16.992396,394.62786 16.992396,392.44194 C16.992396,390.25602 18.726156,388.48194 20.862396,388.48194 C22.998636,388.48194 24.732396,390.25602 24.732396,392.44194" id="Fill-15" fill="#1B304E"></path>
                <path d="M24.732396,464.71194 C24.732396,466.89786 22.998636,468.67194 20.862396,468.67194 C18.726156,468.67194 16.992396,466.89786 16.992396,464.71194 C16.992396,462.52602 18.726156,460.75194 20.862396,460.75194 C22.998636,460.75194 24.732396,462.52602 24.732396,464.71194" id="Fill-17" fill="#1B304E"></path>
                <path d="M32.895,7.133742 L32.472396,581.333742" id="Stroke-19" stroke="#1B304E" stroke-width="1.98"></path>
                <g id="Group-23" transform="translate(0.000000, 1.391940)" fill="#1B304E">
                    <path d="M41.7242115,1.475298 C35.6812065,5.637258 28.2953115,7.827138 20.8629765,7.856838 C17.1497115,7.815258 13.4364465,7.316298 9.9186165,6.183738 C8.1616365,5.617458 6.4375515,4.973958 4.7657115,4.225518 C3.1287015,3.374118 1.4974965,2.554398 -0.0001935,1.475298 L0.0772065,1.293138 C6.6310515,4.185918 13.7228265,5.918418 20.8629765,5.876838 C28.0011915,5.916438 35.0929665,4.185918 41.6487465,1.293138 L41.7242115,1.475298 Z" id="Fill-21"></path>
                </g>
            </g>
            <path d="M9.675,607.86 C9.675,352 9.675,160.27 9.675,32.67" id="Stroke-3" stroke="#1B304E" stroke-width="1.98"></path>
        </g>
        <g id="thumbnail/sleeve/short-sleeve" transform="translate(145.000000, 7.000000)">
            <path d="M12.5,18.7654723 C10.3421818,18.7654723 8.59090909,16.9909837 8.59090909,14.8045603 C8.59090909,12.6181368 10.3421818,10.8436482 12.5,10.8436482 C14.6578182,10.8436482 16.4090909,12.6181368 16.4090909,14.8045603 C16.4090909,16.9909837 14.6578182,18.7654723 12.5,18.7654723 Z" id="Fill-5-Copy" fill="#1B304E"></path>
            <path d="M1,27 C1,23.4234618 0.924242424,19.3919878 0.772727273,14.9055781 C0.772727273,10.2981777 3.42113636,6.11088708 7.56086364,4.17009856 L14.4545455,0.941368078" id="Stroke-3" stroke="#1B304E" stroke-width="1.8"></path>
        </g>
    </g>
</svg>