<?xml version="1.0" encoding="UTF-8"?>
<svg width="314px" height="144px" viewBox="0 0 314 144" version="1.1" xmlns="http://www.w3.org/2000/svg" xmlns:xlink="http://www.w3.org/1999/xlink" style="background: #FFFFFF;">
    <!-- Generator: Sketch 49.1 (51147) - http://www.bohemiancoding.com/sketch -->
    <title>Placket-without</title>
    <desc>Created with Sketch.</desc>
    <defs>
        <polygon id="path-1" points="0 1.293138 41.7242115 1.293138 41.7242115 7.856838 0 7.856838"></polygon>
    </defs>
    <g id="Placket-without" stroke="none" stroke-width="1" fill="none" fill-rule="evenodd">
        <g id="placket/Without" transform="translate(136.000000, 2.000000)">
            <g id="Page-1" transform="translate(0.000000, 25.740000)">
                <path d="M9.675,578.59623 C9.675,324.462214 9.675,133.861702 9.675,6.79469342" id="Stroke-3" stroke="#1B304E" stroke-width="1.98"></path>
                <path d="M25.155,31.09194 C25.155,33.27786 23.42124,35.05194 21.285,35.05194 C19.14876,35.05194 17.415,33.27786 17.415,31.09194 C17.415,28.90602 19.14876,27.13194 21.285,27.13194 C23.42124,27.13194 25.155,28.90602 25.155,31.09194" id="Fill-5" fill="#1B304E"></path>
                <path d="M25.155,103.36194 C25.155,105.54786 23.42124,107.32194 21.285,107.32194 C19.14876,107.32194 17.415,105.54786 17.415,103.36194 C17.415,101.17602 19.14876,99.40194 21.285,99.40194 C23.42124,99.40194 25.155,101.17602 25.155,103.36194" id="Fill-7" fill="#1B304E"></path>
                <path d="M25.155,175.63194 C25.155,177.81786 23.42124,179.59194 21.285,179.59194 C19.14876,179.59194 17.415,177.81786 17.415,175.63194 C17.415,173.44602 19.14876,171.67194 21.285,171.67194 C23.42124,171.67194 25.155,173.44602 25.155,175.63194" id="Fill-9" fill="#1B304E"></path>
                <path d="M25.155,247.90194 C25.155,250.08786 23.42124,251.86194 21.285,251.86194 C19.14876,251.86194 17.415,250.08786 17.415,247.90194 C17.415,245.71602 19.14876,243.94194 21.285,243.94194 C23.42124,243.94194 25.155,245.71602 25.155,247.90194" id="Fill-11" fill="#1B304E"></path>
                <path d="M25.155,320.17194 C25.155,322.35786 23.42124,324.13194 21.285,324.13194 C19.14876,324.13194 17.415,322.35786 17.415,320.17194 C17.415,317.98602 19.14876,316.21194 21.285,316.21194 C23.42124,316.21194 25.155,317.98602 25.155,320.17194" id="Fill-13" fill="#1B304E"></path>
                <path d="M25.155,392.44194 C25.155,394.62786 23.42124,396.40194 21.285,396.40194 C19.14876,396.40194 17.415,394.62786 17.415,392.44194 C17.415,390.25602 19.14876,388.48194 21.285,388.48194 C23.42124,388.48194 25.155,390.25602 25.155,392.44194" id="Fill-15" fill="#1B304E"></path>
                <path d="M25.155,464.71194 C25.155,466.89786 23.42124,468.67194 21.285,468.67194 C19.14876,468.67194 17.415,466.89786 17.415,464.71194 C17.415,462.52602 19.14876,460.75194 21.285,460.75194 C23.42124,460.75194 25.155,462.52602 25.155,464.71194" id="Fill-17" fill="#1B304E"></path>
                <g id="Group-23" transform="translate(0.000000, 1.391940)">
                    <mask id="mask-2" fill="white">
                        <use xlink:href="#path-1"></use>
                    </mask>
                    <g id="Clip-22"></g>
                    <path d="M41.7242115,1.475298 C35.6812065,5.637258 28.2953115,7.827138 20.8629765,7.856838 C17.1497115,7.815258 13.4364465,7.316298 9.9186165,6.183738 C8.1616365,5.617458 6.4375515,4.973958 4.7657115,4.225518 C3.1287015,3.374118 1.4974965,2.554398 -0.0001935,1.475298 L0.0772065,1.293138 C6.6310515,4.185918 13.7228265,5.918418 20.8629765,5.876838 C28.0011915,5.916438 35.0929665,4.185918 41.6487465,1.293138 L41.7242115,1.475298 Z" id="Fill-21" fill="#1B304E" mask="url(#mask-2)"></path>
                </g>
            </g>
        </g>
        <g id="thumbnail/sleeve/short-sleeve" transform="translate(145.000000, 7.000000)">
            <path d="M12.5,18.7654723 C10.3421818,18.7654723 8.59090909,16.9909837 8.59090909,14.8045603 C8.59090909,12.6181368 10.3421818,10.8436482 12.5,10.8436482 C14.6578182,10.8436482 16.4090909,12.6181368 16.4090909,14.8045603 C16.4090909,16.9909837 14.6578182,18.7654723 12.5,18.7654723 Z" id="Fill-5-Copy" fill="#1B304E"></path>
            <path d="M1,27 C1,23.4234618 0.924242424,19.3919878 0.772727273,14.9055781 C0.772727273,10.2981777 3.42113636,6.11088708 7.56086364,4.17009856 L14.4545455,0.941368078" id="Stroke-3" stroke="#1B304E" stroke-width="1.8"></path>
        </g>
    </g>
</svg>